<svg width="1440" height="539" viewBox="0 0 1440 539" fill="none" xmlns="http://www.w3.org/2000/svg">
<g clip-path="url(#clip0_1097_3957)">
<path opacity="0.5" d="M1439.88 0C1414.28 7.70876 1393.85 25.0481 1384.24 47.0427C1368.64 48.3026 1355.88 57.9545 1351.88 70.7669C1333.98 78.7746 1320.48 93.2099 1315.45 110.613C1310.92 116.059 1307.66 122.337 1306.07 129.17C1304.21 130.686 1302.47 132.288 1300.83 133.996C1280.99 139.954 1265.53 154.026 1259.65 171.686C1250.36 173.351 1241.79 176.682 1234.34 181.295C1222.36 165.514 1201.81 155.115 1178.49 155.115C1150.41 155.115 1126.38 170.191 1116.43 191.545C1106.09 199.979 1098.97 211.34 1096.81 224.109C1091.96 222.764 1086.79 222.017 1081.43 222.017C1060.36 222.017 1042.33 233.228 1034.68 249.179C1024.3 240.723 1010.33 235.555 994.996 235.555C991.689 235.555 988.455 235.811 985.32 236.26C976.672 230.558 965.942 227.142 954.256 227.142C940.905 227.142 928.803 231.583 919.64 238.822C908.641 224.408 889.826 214.906 868.464 214.906C834.534 214.906 807.048 238.886 807.048 268.44C807.048 275.914 808.812 283.046 811.996 289.516C795.877 292.89 782.623 302.628 775.886 315.526C770.203 311.34 762.853 308.799 754.818 308.799C742.912 308.799 732.549 314.351 726.817 322.636C722.04 321.12 716.895 320.245 711.505 320.245C691.834 320.245 675.15 331.285 669.075 346.638C670.471 349.307 671.598 352.105 672.456 354.988C674.881 354.39 677.429 354.048 680.099 354.048C685.097 354.048 689.776 355.222 693.818 357.23C701.412 347.791 713.98 341.62 728.213 341.62C737.008 341.62 745.141 343.969 751.903 348.005C762.878 340.232 776.866 335.577 792.128 335.577C807.391 335.577 820.84 340.083 831.742 347.578C836.298 345.57 841.173 344.012 846.293 343.008C856.901 326.993 876.769 316.188 899.503 316.188C928.778 316.188 953.252 334.039 959.425 357.956C960.846 357.87 962.267 357.828 963.712 357.828C974.051 357.828 983.801 359.963 992.448 363.743C1000.85 360.198 1010.28 358.212 1020.25 358.212C1023.49 358.212 1026.67 358.426 1029.78 358.831C1035.59 340.68 1054.65 327.356 1077.33 327.356C1083.24 327.356 1088.9 328.317 1094.14 329.961C1095.44 329.598 1096.74 329.277 1098.06 328.978C1108.62 318.237 1124.25 311.426 1141.74 311.426C1146.27 311.426 1150.66 311.895 1154.87 312.75C1165.85 300.834 1182.68 293.189 1201.56 293.189C1209.75 293.189 1217.54 294.62 1224.64 297.204C1232.38 289.922 1242.13 284.285 1253.13 280.954C1255.85 278.263 1258.99 275.893 1262.44 273.928C1267.81 248.197 1293.63 228.658 1324.71 228.658C1338.58 228.658 1351.39 232.544 1361.8 239.143C1373.39 231.562 1387.8 227.056 1403.4 227.056C1404.5 227.056 1405.58 227.078 1406.69 227.12C1415.63 219.646 1427.12 214.479 1439.9 212.706V0H1439.88Z" fill="white"/>
<path opacity="0.5" d="M23.7487 155.072C39.6724 155.072 54.2242 160.112 65.4443 168.461C72.7692 166.262 80.6085 165.044 88.7909 165.044C114.244 165.044 136.562 176.661 149.227 194.107C157.973 202.948 163.265 214.436 163.265 227.035C163.265 233.014 162.064 238.737 159.884 244.054C159.933 244.054 159.982 244.054 160.031 244.054C171.913 244.054 183.035 246.873 192.564 251.784C202.241 246.873 213.461 244.054 225.465 244.054C244.157 244.054 260.987 250.887 272.918 261.842C278.528 260.048 284.579 259.002 290.924 259.002C304.177 259.002 316.23 263.337 325.441 270.405C334.53 273.138 342.713 277.537 349.474 283.238C360.082 283.431 370.077 285.758 378.896 289.773C391.023 271.387 413.732 259.023 439.798 259.023C473.826 259.023 502.195 280.121 508.638 308.116C511.21 309.077 513.635 310.23 515.962 311.554C538.182 312.685 556.507 326.224 562.019 344.353C571.867 327.633 591.833 316.187 614.885 316.187C615.988 316.187 617.041 316.252 618.119 316.316C618.168 315.333 618.217 314.33 618.217 313.326C618.217 304.037 615.841 295.239 611.652 287.36C611.456 285.972 611.211 284.584 610.892 283.217C611.505 279.864 611.848 276.448 611.848 272.946C611.848 238.224 580.343 209.952 540.901 208.585C536.418 201.047 528.015 195.581 518.02 194.278C510.916 166.667 483.576 145.74 450.283 143.904C437.226 128.294 416.084 118.13 392.199 118.13C377.794 118.13 364.393 121.845 353.124 128.209C347.465 123.725 339.993 120.97 331.738 120.97C328.455 120.97 325.319 121.397 322.33 122.208C318.019 117.148 311.135 113.859 303.344 113.859C297.906 113.859 292.884 115.482 288.891 118.173C279.924 118.578 272.403 123.81 269.758 130.964C269.415 130.964 269.072 130.942 268.729 130.942C256.774 130.942 245.48 133.505 235.558 138.01C224.485 125.903 207.435 118.13 188.302 118.13C172.354 118.13 157.875 123.511 147.072 132.309C142.098 131.412 136.929 130.942 131.638 130.942C127.4 130.942 123.235 131.263 119.193 131.839C108.463 123.319 94.2049 118.13 78.5262 118.13C51.3824 118.13 28.4523 133.761 20.8579 155.264C21.8133 155.222 22.7443 155.158 23.6997 155.158L23.7487 155.072Z" fill="white"/>
<path opacity="0.8" d="M1439.88 212.685C1427.09 214.436 1415.58 219.604 1406.66 227.099C1405.58 227.056 1404.48 227.035 1403.38 227.035C1387.77 227.035 1373.37 231.519 1361.78 239.121C1351.34 232.544 1338.56 228.636 1324.69 228.636C1293.63 228.636 1267.78 248.154 1262.42 273.907C1258.96 275.871 1255.85 278.263 1253.11 280.932C1242.11 284.263 1232.36 289.901 1224.62 297.182C1217.51 294.599 1209.72 293.168 1201.54 293.168C1182.65 293.168 1165.8 300.813 1154.85 312.728C1150.63 311.874 1146.22 311.404 1141.71 311.404C1124.22 311.404 1108.57 318.216 1098.03 328.957C1096.71 329.256 1095.39 329.576 1094.12 329.939C1088.85 328.274 1083.21 327.334 1077.31 327.334C1054.65 327.334 1035.59 340.659 1029.76 358.81C1026.65 358.404 1023.46 358.191 1020.23 358.191C1010.26 358.191 1000.83 360.177 992.424 363.721C983.776 359.942 974.026 357.806 963.688 357.806C962.242 357.806 960.821 357.87 959.401 357.934C953.252 334.039 928.754 316.166 899.479 316.166C876.72 316.166 856.877 326.95 846.269 342.987C841.149 343.99 836.274 345.549 831.717 347.556C820.815 340.04 807.072 335.555 792.104 335.555C777.135 335.555 762.878 340.211 751.878 347.983C745.141 343.969 736.983 341.599 728.188 341.599C713.955 341.599 701.388 347.791 693.793 357.208C689.751 355.201 685.072 354.027 680.074 354.027C677.429 354.027 674.856 354.368 672.431 354.966C665.817 332.651 642.568 316.145 614.91 316.145C591.857 316.145 571.891 327.59 562.043 344.311C556.531 326.181 538.207 312.643 515.987 311.511C513.66 310.208 511.234 309.034 508.662 308.073C502.195 280.078 473.85 258.98 439.823 258.98C413.757 258.98 391.023 271.366 378.921 289.73C370.077 285.715 360.082 283.388 349.498 283.196C342.713 277.515 334.53 273.095 325.466 270.362C316.255 263.272 304.202 258.959 290.948 258.959C284.603 258.959 278.577 259.984 272.942 261.799C261.012 250.844 244.182 244.011 225.49 244.011C213.486 244.011 202.265 246.83 192.589 251.741C183.059 246.83 171.937 244.011 160.055 244.011C160.006 244.011 159.957 244.011 159.908 244.011C162.089 238.694 163.289 232.971 163.289 226.992C163.289 214.415 157.998 202.905 149.252 194.064C136.586 176.597 114.269 165.002 88.8152 165.002C80.6329 165.002 72.7935 166.219 65.4686 168.418C54.224 160.069 39.6722 155.029 23.773 155.029C19.9758 155.029 16.2521 155.328 12.6264 155.884C9.4172 155.328 6.08547 155.029 2.68025 155.029C-9.71574 155.029 -21.1073 158.852 -29.9756 165.237V370.64C-15.9627 377.473 0.181452 381.381 17.379 381.381C57.2373 381.381 91.461 360.454 106.454 330.537C107.336 331.712 108.291 332.865 109.271 333.975C113.338 342.965 120.344 350.631 129.286 356.098C129.286 356.632 129.237 357.166 129.237 357.699C129.237 389.645 158.953 415.526 195.577 415.526C223.211 415.526 246.901 400.792 256.871 379.843C261.11 380.804 265.519 381.36 270.1 381.36C275.71 381.36 281.1 380.591 286.171 379.16C290.287 380.185 294.574 380.868 298.984 381.167C311.208 392.656 328.675 399.873 348.078 399.873C368.729 399.873 387.176 391.716 399.474 378.925C402.512 382.107 405.942 384.99 409.69 387.531C409.519 388.62 409.421 389.73 409.421 390.862C409.421 405.191 422.747 416.807 439.186 416.807C444.943 416.807 450.332 415.355 454.889 412.878C461.307 415.376 468.387 416.807 475.859 416.807C492.224 416.807 506.751 410.123 516.158 399.745C524.463 399.297 532.229 397.119 538.99 393.595C538.892 394.855 538.819 396.115 538.819 397.396C538.819 424.708 564.223 446.873 595.581 446.873C603.641 446.873 611.284 445.4 618.217 442.773C628.016 452.276 642.225 458.255 658.051 458.255C668.56 458.255 678.36 455.607 686.615 451.037C695.19 459.365 707.512 464.683 721.305 464.917C725.616 486.207 746.88 502.372 772.53 502.372C798.179 502.372 819.517 486.143 823.78 464.811C832.403 461.586 840.095 456.867 846.465 451.016C850.948 451.892 855.578 452.361 860.355 452.361C877.749 452.361 893.501 446.276 904.991 436.389C911.434 448.987 923.046 459.131 937.499 464.747C943.575 476.833 957.392 485.268 973.487 485.268C987.867 485.268 1000.41 478.52 1007.25 468.462C1011.43 469.21 1015.77 469.615 1020.2 469.615C1023.46 469.615 1026.67 469.402 1029.81 468.996C1042.67 488.919 1067.12 502.372 1095.22 502.372C1128.78 502.372 1157.17 483.175 1166.75 456.675C1199.48 453.771 1225.01 429.684 1225.01 400.407C1225.01 398.806 1224.91 397.226 1224.76 395.667C1236.5 404.486 1251.78 409.846 1268.49 409.846C1291.5 409.846 1311.8 399.724 1323.86 384.328C1333.93 376.299 1341.32 365.75 1344.73 353.834C1354.75 358.682 1366.29 361.458 1378.59 361.458C1397.5 361.458 1414.65 354.902 1427.21 344.247C1431.67 342.816 1435.91 340.979 1439.88 338.823V212.621V212.685Z" fill="white"/>
<path d="M1439.88 261.265C1419.79 265.707 1402.57 276.427 1391.1 290.883C1382.43 298.4 1375.33 307.304 1370.26 317.17C1359.26 318.195 1348.77 320.779 1339.12 324.665C1304.7 333.121 1276.92 355.287 1263.98 383.986C1253.13 380.484 1241.42 378.584 1229.17 378.584C1204.36 378.584 1181.65 386.442 1164.13 399.446C1153.23 394.322 1140.76 391.396 1127.51 391.396C1106.29 391.396 1087.06 398.87 1073.12 410.956C1070.45 410.743 1067.78 410.615 1065.04 410.615C1040.51 410.615 1018.39 419.605 1002.76 434.018C989.215 424.729 972.14 419.156 953.57 419.156C938.7 419.156 924.785 422.722 912.879 428.894C909.841 395.944 878.214 370.042 839.654 370.042C813.785 370.042 791.05 381.701 777.969 399.318C762.29 408.33 751.07 422.722 747.664 439.464C743.451 440.211 739.409 441.3 735.538 442.752C724.881 422.551 701.486 408.501 674.293 408.501C657.977 408.501 643.034 413.561 631.372 421.953C628.188 421.526 624.93 421.313 621.622 421.313C606.507 421.313 592.617 425.925 581.69 433.591C575.958 392.976 536.271 361.522 488.108 361.522C475.271 361.522 463.047 363.764 451.9 367.8C440.974 331.028 402.635 303.866 357.044 303.866C323.751 303.866 294.378 318.344 276.666 340.446C274.094 340.275 271.497 340.168 268.851 340.168C251.262 340.168 234.725 344.012 220.247 350.802C208.268 340.275 191.658 333.762 173.309 333.762C167.258 333.762 161.403 334.488 155.842 335.812C154.225 335.342 152.584 334.894 150.942 334.488C151.138 332.481 151.261 330.473 151.261 328.423C151.261 319.305 149.227 310.593 145.553 302.606C140.09 269.508 107.458 244.075 67.9675 244.075C41.9506 244.075 18.898 255.137 4.64014 272.156C-4.17914 267.885 -14.3213 265.429 -25.1249 265.429C-26.7663 265.429 -28.4077 265.493 -30.0245 265.621V538.759H1439.86V261.265H1439.88Z" fill="white"/>
<path opacity="0.2" d="M119.242 131.775C123.284 131.198 127.449 130.878 131.687 130.878C136.978 130.878 142.147 131.348 147.12 132.245C148.321 131.263 149.595 130.323 150.893 129.426C142.466 125.817 133.01 123.746 122.99 123.746C118.139 123.746 113.411 124.258 108.855 125.155C112.578 127.034 116.057 129.255 119.217 131.775H119.242Z" fill="white"/>
<path opacity="0.2" d="M39.0109 76.7674C27.2028 76.7674 16.1052 79.3512 6.37953 83.8996C5.15463 82.9814 3.83174 82.1699 2.45985 81.4012C0.842981 66.5175 -12.8514 54.7088 -30 53.5129V165.258C-21.1072 158.895 -9.74015 155.051 2.65583 155.051C6.06105 155.051 9.39278 155.35 12.602 155.905C15.2968 155.499 18.0896 155.264 20.9068 155.158C28.5012 133.676 51.4314 118.023 78.5751 118.023C88.5948 118.023 98.051 120.159 106.356 123.917C99.5454 96.9255 71.9852 76.7247 38.9864 76.7247L39.0109 76.7674Z" fill="white"/>
<path opacity="0.2" d="M618.242 313.283C618.242 314.287 618.217 315.269 618.144 316.273C640.829 317.341 660.133 329.47 669.026 346.617C675.101 331.263 691.785 320.223 711.456 320.223C716.846 320.223 721.991 321.099 726.768 322.615C732.5 314.33 742.863 308.778 754.769 308.778C762.804 308.778 770.154 311.319 775.837 315.504C782.55 302.606 795.828 292.869 811.947 289.495C808.763 283.025 806.999 275.914 806.999 268.419C806.999 257.913 810.477 248.133 816.455 239.869C799.502 240.723 785.685 251.656 782.746 265.899C780.81 267.586 779.193 269.551 777.969 271.729C777.381 272.284 776.817 272.839 776.303 273.437C773.926 273.885 771.697 274.611 769.59 275.572C762.192 275.743 755.504 278.327 750.531 282.47C748.865 282.107 747.126 281.914 745.337 281.914C735.416 281.914 727.037 287.701 724.391 295.602C724.097 295.602 723.803 295.56 723.509 295.56C720.423 295.56 717.532 296.222 715.009 297.417C712.069 296.243 708.811 295.56 705.381 295.56C704.181 295.56 703.005 295.666 701.853 295.816C698.105 293.809 693.769 292.591 689.114 292.378C684.166 286.057 675.836 281.893 666.38 281.893C664.861 281.893 663.391 282.021 661.946 282.235C656.41 276.512 648.129 272.86 638.844 272.86C631.985 272.86 625.689 274.868 620.642 278.22C616.87 279.032 613.538 280.783 610.917 283.132C611.235 284.498 611.48 285.886 611.676 287.274C615.89 295.175 618.242 303.973 618.242 313.241V313.283Z" fill="white"/>
</g>
<defs>
<clipPath id="clip0_1097_3957">
<rect width="1469.88" height="538.738" fill="white" transform="translate(-30)"/>
</clipPath>
</defs>
</svg>
