<svg width="712" height="701" viewBox="0 0 712 701" fill="none" xmlns="http://www.w3.org/2000/svg">
<g filter="url(#filter0_dd_1_8264)">
<path fill-rule="evenodd" clip-rule="evenodd" d="M511.43 406.184C511.57 406.209 511.722 406.236 511.887 406.264C512.801 406.423 514.095 406.642 515.712 406.899C518.941 407.411 523.491 408.082 528.917 408.737C539.638 410.033 554.353 411.342 569.274 411.12C583.43 410.91 601.12 409.326 615.841 402.718C623.514 399.274 632.073 393.716 638.292 384.629C644.876 375.008 647.22 363.781 645.913 352.416C644.595 340.959 639.086 329.561 633.556 320.45C627.606 310.646 619.786 300.512 610.923 291.161C594.142 273.458 569.297 254.053 541.863 249.63C521.533 246.352 500.421 252.424 483.581 259.005C478.277 261.078 472.959 263.385 467.722 265.807C466.662 263.501 465.389 261.29 463.928 259.195C457.383 249.819 447.883 243.817 440.01 239.929C423.802 231.926 402.564 227.16 383.04 224.864C363.366 222.551 342.057 222.354 325.016 225.525C316.892 227.036 306.813 229.818 298.417 235.749C295.776 237.614 292.931 240.053 290.356 243.185C282.149 233.754 273.772 224.364 265.79 216.112C259.553 209.664 253.164 203.496 246.933 198.337C241.039 193.456 233.745 188.166 225.745 184.967C196.409 173.236 163.44 179.693 140.271 187.496C128.012 191.624 116.839 196.69 107.854 201.557C99.709 205.97 90.9408 211.509 85.3606 217.255C77.1981 225.659 68.2857 239.817 67.5825 256.822C67.2063 265.918 69.2434 275.773 75.0507 284.925C80.7828 293.958 89.136 300.66 98.8083 305.393C127.649 319.501 176.302 333.951 219.435 346.761C220.194 346.987 220.952 347.212 221.708 347.436C238.689 352.48 255.001 357.327 269.661 361.949C264.474 364.097 259.346 366.46 254.357 369.029C232.324 380.376 208.164 398.249 197.102 424.123C182.118 459.175 188.999 494.877 205.775 523.4C222.369 551.612 249.472 574.652 279.715 587.615C310.608 600.856 346.08 603.202 377.64 594.333C409.463 585.389 438.849 564.441 453.511 530.141C472.959 484.651 458.509 433.65 430.435 398.351C438.185 398.955 446.447 399.67 454.674 400.426C469.441 401.783 483.864 403.249 494.611 404.376C499.98 404.94 504.421 405.418 507.515 405.755C509.062 405.923 510.271 406.056 511.091 406.147L511.43 406.184Z" fill="url(#paint0_linear_1_8264)"/>
<path d="M532.991 281.32C496.126 274.474 436.437 315.739 407.06 325.288C405.053 325.94 384.582 368.919 383.229 370.815C365.617 395.479 341.716 379.434 330.926 329.549C310.106 324.424 243.254 220.474 212.704 207.408C173.001 190.427 111.993 220.566 101.686 230.686C91.3781 240.807 82.3178 262.551 106.435 275.07C161.361 303.576 303.847 338.02 331.67 359.494C346.573 364.793 311.585 298.373 305.625 266.977C299.666 235.581 455.033 253.375 437.983 289.97C433.209 300.216 420.729 309.728 407.06 325.288C393.13 350.913 380.602 373.702 382.346 371.167C385.742 366.231 508.473 382.917 508.473 382.917C508.473 382.917 616.174 405.728 612.193 361.994C610.168 339.737 569.855 288.166 532.991 281.32Z" fill="white"/>
<path d="M365.814 320.469C349.117 316.658 339.433 351.239 339.433 351.239C339.433 351.239 374.254 378.686 376.401 356.288C378.548 333.891 373.85 322.303 365.814 320.469Z" fill="white"/>
<path fill-rule="evenodd" clip-rule="evenodd" d="M561.873 383.554C575.286 383.674 608.839 383.552 606.92 362.473C605.45 346.318 591.536 329.447 579.454 319.929C560.486 304.987 546.833 297.796 530.11 294.69C522.009 293.186 512.251 294.274 501.366 297.233C490.536 300.177 469.961 307.042 458.468 312.319C446.567 316.499 439.357 319.172 432.19 321.83C428.699 323.124 425.219 324.415 421.211 325.874L421.376 326.371C417.628 327.619 414.04 328.787 410.596 329.873C407.752 335.102 404.986 340.179 402.405 344.915C401.366 346.821 400.357 348.673 399.385 350.457C397.61 354.007 395.854 357.549 394.264 360.756L394.257 360.77C393.517 362.263 392.813 363.683 392.16 364.998C395.497 365.089 399.471 365.313 403.868 365.633C415.964 366.511 431.711 368.144 447.283 369.923C460.417 371.424 473.617 373.478 486.847 375.537C511.831 379.426 536.921 383.331 561.873 383.554ZM404.15 320.355C433.582 277.366 425.596 265.999 372.485 258.47C354.815 255.965 339.794 255.349 327.035 257.411C300.82 261.647 315.201 291.016 325.243 311.523C327.098 315.312 328.805 318.798 330.081 321.768C334.003 323.787 337.748 325.387 341.491 326.584C344.051 322.943 347.253 319.211 351.096 316.44C355.892 312.981 362.36 310.606 369.657 312.808C376.28 314.807 380.428 320.002 382.68 326.235C389.008 324.797 396.08 322.844 404.15 320.355ZM342.605 350.615C343.754 348.12 345.762 343.937 348.254 339.472C352.493 340.137 356.898 340.409 361.604 340.274C366.552 340.133 371.8 339.543 377.507 338.52C377.808 343.843 377.307 350.132 376.148 357.127C373.184 375.009 352.533 361.384 344.62 355.414C343.934 353.897 343.262 352.297 342.605 350.615ZM353.373 369.78C357.748 371.976 363.367 374.08 368.88 373.573C371.421 373.34 374.027 372.541 376.364 370.936C373.321 374.314 370.423 376.022 367.897 376.634C364.849 377.373 361.467 376.732 357.7 373.899C356.263 372.818 354.814 371.447 353.373 369.78ZM383.764 357.009C384.919 349.52 385.295 342.828 384.844 337.028C388.289 336.251 391.9 335.339 395.706 334.295C393.965 337.655 392.055 341.434 390.166 345.208L389.999 345.542C387.846 349.495 385.876 353.114 384.172 356.256C384.034 356.51 383.898 356.761 383.764 357.009ZM431.597 308.675C430.752 309.093 429.916 309.506 429.091 309.912C429.281 309.716 429.471 309.52 429.66 309.325C435.069 303.738 439.977 298.231 442.782 292.211C445.756 285.828 444.899 279.594 441.358 274.255C420.208 242.366 340.084 231.073 307.352 253.046C293.181 262.559 303.437 285.489 310.206 300.623C311.518 303.556 312.699 306.197 313.545 308.39C313 307.799 312.447 307.194 311.888 306.577C302.567 296.295 293.647 284.009 284.518 271.435C264.451 243.795 243.37 214.758 214.784 202.533C181.608 188.343 123.957 201.393 97.9782 226.9C92.2074 232.566 86.5161 241.684 85.8676 251.631C85.5359 256.72 86.5344 262.026 89.5339 267.01C92.5191 271.972 97.2911 276.293 103.999 279.775C130.848 293.71 177.937 308.922 222.127 323.198L222.128 323.198L222.237 323.233C247.173 331.289 271.23 339.06 290.632 346.225C308.893 352.968 322.23 358.9 328.438 363.691L329.105 364.206L329.899 364.488C331.357 365.007 333.484 365.46 335.7 364.657C336.181 364.483 336.619 364.268 337.016 364.022C341.208 372.176 346.036 378.386 351.34 382.375C357.098 386.705 363.667 388.569 370.392 386.938C376.366 385.49 381.684 381.469 386.247 375.626C386.914 375.585 387.75 375.56 388.765 375.555C392.239 375.54 397.15 375.775 403.104 376.207C414.976 377.069 430.548 378.682 446.084 380.457C459.294 381.966 472.564 384.022 485.863 386.082C511.14 389.998 536.52 393.93 561.78 394.156C578.393 394.304 602.286 393.675 613.176 378.548C639.396 342.124 565.292 281.927 533.956 276.107C523.624 274.188 512.098 275.691 500.505 278.842C488.857 282.008 476.719 286.96 465.01 292.336C456.145 296.407 447.39 300.786 439.225 304.871L439.225 304.871C436.617 306.175 434.069 307.45 431.597 308.675ZM294.295 336.278C308.587 341.555 320.931 346.695 329.266 351.565C328.042 346.518 325.537 339.423 322.364 331.082C320.78 329.977 319.203 328.71 317.66 327.374C313.543 323.811 308.939 319.099 304.046 313.701C294.991 303.712 286.264 291.552 277.302 279.065C258.033 252.216 237.676 223.852 210.625 212.282C192.542 204.548 168.89 207.38 147.741 213.947C126.158 220.648 92.7912 243.003 119.937 265.645C140.206 282.552 218.049 309.484 242.946 317.532C258.645 322.607 268.35 326.355 278.751 330.372C283.563 332.231 288.523 334.146 294.295 336.278ZM361.29 329.274C359.059 329.337 356.909 329.296 354.814 329.149C358.927 323.641 363.396 319.648 367.279 320.714C370.924 321.714 373.51 324.149 375.181 327.758C370.112 328.652 365.539 329.152 361.29 329.274Z" fill="#30374F"/>
<path d="M356.787 340.023C347.469 339.709 332.024 336.725 321.176 330.116L322.099 347.863C332.72 354.474 349.17 356.706 332.383 372.784C331.37 373.755 364.783 366.904 367.625 366.42C383.714 363.68 404.264 365.524 404.264 365.524C419.665 350.45 443.786 318.953 426.941 323.734C413.366 327.588 376.084 340.673 356.787 340.023Z" fill="white"/>
<path fill-rule="evenodd" clip-rule="evenodd" d="M378.169 353.817C369.66 347.124 353.187 346.478 342.46 346.958C339.362 347.096 334.479 347.589 330.58 350.126C326.009 353.1 318.569 360.051 312.698 367.429C276.731 375.214 238.884 400.046 225.59 438.432C205.52 496.398 238.106 554.527 294.827 574.22C322.977 583.993 354.545 583.807 381.704 574.054C408.962 564.266 432.361 544.565 442.582 515.044C459.297 466.779 433.537 414.182 395.314 387.021C391.098 375.343 388.702 362.104 378.169 353.817Z" fill="#30374F"/>
<path fill-rule="evenodd" clip-rule="evenodd" d="M362.254 359.917C365.336 360.897 368.881 362.36 371.658 364.604C375.318 367.562 378.565 372.637 381.057 377.361C381.9 378.959 382.725 380.652 383.517 382.408C364.843 374.98 353.603 376.615 349.262 377.246C348.397 377.372 347.805 377.458 347.484 377.425C347.904 377.53 348.726 377.629 349.879 377.767C356.137 378.516 372.171 380.436 386.941 391.067C386.96 391.122 386.979 391.178 386.998 391.234C420.305 415.488 443.051 464.706 427.871 508.673C418.589 535.564 397.828 553.68 373.778 562.841C349.815 571.97 319.5 572.713 294.867 564.133C245.23 546.845 214.12 494.135 232.347 441.331C244.419 406.364 283.013 381.721 314.695 374.289C321.315 367.79 327.098 362.919 331.146 360.174C334.597 357.832 338.893 357.334 341.616 357.177C344.86 356.99 348.452 357.194 351.911 357.656C355.385 358.119 358.987 358.878 362.254 359.917Z" fill="white"/>
<path fill-rule="evenodd" clip-rule="evenodd" d="M330.246 506.16C355.361 512.398 373.322 493.181 381.663 469.393C388.727 449.246 394.631 418.865 368.986 405.61C356.147 398.974 325.551 391.161 295.552 393.863C254.934 397.522 238.119 409.429 230.168 417.214C222.244 424.661 215.805 435.12 213.866 448.112C207.311 492.048 228.597 511.785 237.56 507.397L237.565 507.401C237.576 507.393 237.587 507.386 237.598 507.378C237.708 507.323 237.816 507.265 237.922 507.203C238.562 506.827 239.197 506.394 239.825 505.908C260.668 493.021 292.467 496.776 330.246 506.16Z" fill="white"/>
<path fill-rule="evenodd" clip-rule="evenodd" d="M239.026 505.357L239.021 505.353C230.313 509.656 209.607 490.251 215.942 447.1C217.816 434.339 224.065 424.072 231.761 416.763C239.482 409.122 255.816 397.441 295.292 393.881C324.447 391.251 354.192 398.951 366.677 405.48C391.614 418.521 385.9 448.359 379.051 468.143C370.964 491.502 353.522 510.363 329.106 504.215C292.379 494.966 261.469 491.251 241.22 503.893C240.611 504.369 239.994 504.794 239.372 505.162C239.269 505.223 239.164 505.281 239.058 505.334L239.026 505.357ZM234.344 512.383C233.628 511.384 235.012 511.479 234.536 511.333C233.699 511.077 234.391 511.646 232.052 510.759C227.541 507.981 223.446 503.448 220.193 497.68C213.629 486.037 209.929 468.439 213.307 445.43C215.48 430.629 222.722 418.754 231.543 410.353C240.834 401.183 261.296 387.603 294.551 384.604C325.147 381.844 359.253 387.423 373.184 394.709C391.77 404.429 398.194 418.711 399.184 432.461C400.14 445.731 397.504 463.025 393.96 473.261C389.585 485.899 380.935 500.453 370.989 508.561C360.784 516.88 347.877 520.867 332.987 517.117C314.803 512.538 290.678 505.186 276.681 504.71C262.839 504.24 253.178 504.719 244.97 509.727C241.423 511.735 238.414 512.619 236.199 512.235M234.344 512.383C235.811 512.956 234.91 512.73 236.199 512.235L234.344 512.383Z" fill="#30374F"/>
</g>
<defs>
<filter id="filter0_dd_1_8264" x="64.5391" y="176.542" width="584.721" height="427.072" filterUnits="userSpaceOnUse" color-interpolation-filters="sRGB">
<feFlood flood-opacity="0" result="BackgroundImageFix"/>
<feColorMatrix in="SourceAlpha" type="matrix" values="0 0 0 0 0 0 0 0 0 0 0 0 0 0 0 0 0 0 127 0" result="hardAlpha"/>
<feOffset dy="1"/>
<feGaussianBlur stdDeviation="1"/>
<feColorMatrix type="matrix" values="0 0 0 0 0 0 0 0 0 0 0 0 0 0 0 0 0 0 0.06 0"/>
<feBlend mode="normal" in2="BackgroundImageFix" result="effect1_dropShadow_1_8264"/>
<feColorMatrix in="SourceAlpha" type="matrix" values="0 0 0 0 0 0 0 0 0 0 0 0 0 0 0 0 0 0 127 0" result="hardAlpha"/>
<feOffset dy="1"/>
<feGaussianBlur stdDeviation="1.5"/>
<feColorMatrix type="matrix" values="0 0 0 0 0 0 0 0 0 0 0 0 0 0 0 0 0 0 0.1 0"/>
<feBlend mode="normal" in2="effect1_dropShadow_1_8264" result="effect2_dropShadow_1_8264"/>
<feBlend mode="normal" in="SourceGraphic" in2="effect2_dropShadow_1_8264" result="shape"/>
</filter>
<linearGradient id="paint0_linear_1_8264" x1="164.728" y1="415.829" x2="498.387" y2="481.936" gradientUnits="userSpaceOnUse">
<stop offset="0.166667" stop-color="#6947C3"/>
<stop offset="0.510417" stop-color="#FF6F30"/>
<stop offset="0.932292" stop-color="#FFBD00"/>
</linearGradient>
</defs>
</svg>
