<svg width="696" height="560" viewBox="0 0 696 560" fill="none" xmlns="http://www.w3.org/2000/svg">
<g filter="url(#filter0_b_1_8292)">
<mask id="path-1-outside-1_1_8292" maskUnits="userSpaceOnUse" x="-12.0578" y="30.3539" width="722.275" height="521.497" fill="black">
<rect fill="white" x="-12.0578" y="30.3539" width="722.275" height="521.497"/>
<path fill-rule="evenodd" clip-rule="evenodd" d="M506.381 65.8044C481.238 73.7672 447.368 108.338 416.265 140.084C403.753 152.855 391.689 165.168 380.821 175.109C375.644 168.303 369.973 165.417 364.066 166.123C348.917 167.935 345.186 185.745 344.418 197.851C326.026 199.397 277.421 192.61 228.046 185.715C178.888 178.85 128.967 171.879 107.338 172.92C45.1463 175.912 -17.7872 330.229 70.6988 319.302C117.236 313.554 176.242 292.433 230.036 273.177C272.452 257.994 311.626 243.971 338.893 239.559C338.131 241.095 337.353 242.782 336.556 244.646C203.081 312.679 253.794 498.16 396.18 489.572C469.258 485.164 524.624 446.563 534.857 380.669C535.448 362.739 533.237 346.738 528.76 332.508C556.417 318.224 592.263 287.123 582.653 265.214C576.728 251.705 535.072 244.428 495.487 237.512C455.037 230.445 416.749 223.756 420.95 211.182C420.84 201.109 462.701 188.887 510.504 174.931C583.35 153.663 669.992 128.367 642.932 100.509C622.859 79.8435 555.829 54.9367 506.381 65.8044Z"/>
</mask>
<path fill-rule="evenodd" clip-rule="evenodd" d="M506.381 65.8044C481.238 73.7672 447.368 108.338 416.265 140.084C403.753 152.855 391.689 165.168 380.821 175.109C375.644 168.303 369.973 165.417 364.066 166.123C348.917 167.935 345.186 185.745 344.418 197.851C326.026 199.397 277.421 192.61 228.046 185.715C178.888 178.85 128.967 171.879 107.338 172.92C45.1463 175.912 -17.7872 330.229 70.6988 319.302C117.236 313.554 176.242 292.433 230.036 273.177C272.452 257.994 311.626 243.971 338.893 239.559C338.131 241.095 337.353 242.782 336.556 244.646C203.081 312.679 253.794 498.16 396.18 489.572C469.258 485.164 524.624 446.563 534.857 380.669C535.448 362.739 533.237 346.738 528.76 332.508C556.417 318.224 592.263 287.123 582.653 265.214C576.728 251.705 535.072 244.428 495.487 237.512C455.037 230.445 416.749 223.756 420.95 211.182C420.84 201.109 462.701 188.887 510.504 174.931C583.35 153.663 669.992 128.367 642.932 100.509C622.859 79.8435 555.829 54.9367 506.381 65.8044Z" fill="url(#paint0_linear_1_8292)"/>
<path d="M416.265 140.084L404.836 128.887L404.836 128.887L416.265 140.084ZM506.381 65.8044L502.947 50.1774C502.476 50.2809 502.01 50.4055 501.551 50.5511L506.381 65.8044ZM380.821 175.109L368.087 184.796C370.808 188.373 374.909 190.641 379.386 191.044C383.863 191.447 388.303 189.949 391.62 186.915L380.821 175.109ZM364.066 166.123L362.166 150.237L362.166 150.237L364.066 166.123ZM344.418 197.851L345.759 213.794C353.661 213.13 359.884 206.778 360.386 198.864L344.418 197.851ZM228.046 185.715L230.259 169.869L228.046 185.715ZM107.338 172.92L106.569 156.938L106.569 156.938L107.338 172.92ZM70.6988 319.302L72.6598 335.181L72.6599 335.181L70.6988 319.302ZM230.036 273.177L224.644 258.113L224.644 258.113L230.036 273.177ZM338.893 239.559L353.226 246.67C355.891 241.299 355.329 234.889 351.771 230.064C348.213 225.238 342.256 222.807 336.338 223.765L338.893 239.559ZM336.556 244.646L343.822 258.901C347.161 257.199 349.796 254.379 351.269 250.933L336.556 244.646ZM396.18 489.572L397.144 505.543L397.144 505.543L396.18 489.572ZM534.857 380.669L550.668 383.124C550.767 382.486 550.827 381.842 550.849 381.196L534.857 380.669ZM528.76 332.508L521.418 318.292C514.505 321.862 511.162 329.888 513.497 337.309L528.76 332.508ZM582.653 265.214L597.305 258.787L597.305 258.787L582.653 265.214ZM495.487 237.512L492.733 253.273L492.733 253.273L495.487 237.512ZM420.95 211.182L436.126 216.253C436.691 214.562 436.969 212.789 436.949 211.006L420.95 211.182ZM510.504 174.931L506.02 159.572L506.02 159.572L510.504 174.931ZM642.932 100.509L654.41 89.361L654.409 89.361L642.932 100.509ZM427.694 151.281C443.348 135.303 459.154 119.183 474.114 106.049C489.507 92.5349 502.096 83.9447 511.212 81.0578L501.551 50.5511C485.523 55.6269 468.605 68.3033 453.002 82.0016C436.965 96.0805 420.285 113.118 404.836 128.887L427.694 151.281ZM391.62 186.915C402.877 176.618 415.271 163.961 427.694 151.281L404.836 128.887C392.235 141.748 380.5 153.718 370.022 163.302L391.62 186.915ZM365.965 182.01C365.842 182.025 365.643 182.026 365.426 181.984C365.214 181.944 365.141 181.892 365.231 181.94C365.459 182.06 366.494 182.702 368.087 184.796L393.555 165.421C386.32 155.912 375.647 148.625 362.166 150.237L365.965 182.01ZM360.386 198.864C360.721 193.583 361.666 188.458 363.319 184.955C364.087 183.326 364.753 182.607 365.062 182.345C365.221 182.21 365.374 182.081 365.966 182.01L362.166 150.237C347.348 152.009 338.773 161.987 334.379 171.298C330.188 180.18 328.883 190.013 328.45 196.838L360.386 198.864ZM225.833 201.561C250.463 205.001 275.17 208.452 296.027 210.844C316.326 213.173 334.697 214.725 345.759 213.794L343.077 181.907C335.747 182.523 320.619 181.455 299.674 179.053C279.287 176.714 255.004 173.324 230.259 169.869L225.833 201.561ZM108.107 188.902C117.419 188.453 134.05 189.759 155.527 192.247C176.632 194.692 201.203 198.122 225.833 201.561L230.259 169.869C205.731 166.444 180.762 162.956 159.21 160.459C138.03 158.006 118.885 156.346 106.569 156.938L108.107 188.902ZM68.7377 303.422C59.7281 304.535 54.3264 303.328 51.2393 301.847C48.4272 300.497 46.4575 298.426 45.0502 295.148C41.7791 287.529 41.9297 273.796 47.7032 256.36C53.2659 239.562 63.1113 222.293 74.8184 209.302C86.8845 195.914 98.7801 189.35 108.107 188.902L106.569 156.938C84.8003 157.986 65.5073 171.834 51.0471 187.88C36.2278 204.324 24.2092 225.513 17.3254 246.301C10.6522 266.453 7.77358 289.437 15.6456 307.773C19.8099 317.472 26.9548 325.687 37.395 330.697C47.56 335.575 59.5479 336.8 72.6598 335.181L68.7377 303.422ZM224.644 258.113C170.248 277.584 113.123 297.941 68.7377 303.422L72.6599 335.181C121.349 329.168 182.237 307.281 235.428 288.241L224.644 258.113ZM336.338 223.765C307.256 228.47 266.4 243.166 224.644 258.113L235.428 288.241C278.503 272.822 315.997 259.472 341.449 255.354L336.338 223.765ZM351.269 250.933C351.956 249.325 352.609 247.914 353.226 246.67L324.56 232.449C323.654 234.275 322.749 236.239 321.843 238.359L351.269 250.933ZM395.217 473.601C332.223 477.4 290.446 438.785 278.419 391.869C266.418 345.054 284 289.393 343.822 258.901L329.29 230.391C255.637 267.932 231.838 339.028 247.421 399.815C262.978 460.5 317.751 510.331 397.144 505.543L395.217 473.601ZM519.047 378.213C510.32 434.41 463.334 469.492 395.217 473.601L397.144 505.543C475.183 500.836 538.929 458.716 550.668 383.124L519.047 378.213ZM513.497 337.309C517.387 349.673 519.403 363.859 518.866 380.142L550.849 381.196C551.494 361.619 549.086 343.803 544.022 327.706L513.497 337.309ZM568.001 271.641C568.193 272.079 568.693 273.521 567.282 277.117C565.813 280.861 562.73 285.598 557.86 290.938C548.141 301.595 533.879 311.856 521.418 318.292L536.102 346.724C551.298 338.876 568.788 326.444 581.503 312.502C587.85 305.543 593.656 297.505 597.07 288.809C600.541 279.965 601.918 269.304 597.305 258.787L568.001 271.641ZM492.733 253.273C512.755 256.771 532.26 260.193 547.5 264.332C555.137 266.405 560.957 268.468 564.92 270.458C569.519 272.767 568.866 273.615 568.001 271.641L597.305 258.787C593.477 250.059 585.395 244.931 579.28 241.861C572.529 238.471 564.351 235.749 555.885 233.45C538.92 228.843 517.804 225.169 498.24 221.751L492.733 253.273ZM405.775 206.111C403.86 211.843 404.395 217.798 407.075 222.981C409.461 227.597 413.076 230.724 416.048 232.775C421.887 236.805 429.608 239.611 436.98 241.768C452.141 246.205 472.856 249.801 492.733 253.273L498.24 221.751C477.668 218.157 459.014 214.874 445.968 211.056C439.237 209.086 435.646 207.42 434.224 206.439C433.565 205.983 434.562 206.47 435.501 208.286C436.733 210.668 436.99 213.665 436.126 216.253L405.775 206.111ZM506.02 159.572C482.326 166.49 459.29 173.206 442.223 179.501C433.774 182.618 425.932 185.934 419.971 189.494C417.025 191.253 413.763 193.522 411.067 196.433C408.469 199.238 404.874 204.319 404.951 211.357L436.949 211.006C436.999 215.526 434.688 218.022 434.545 218.176C434.304 218.437 434.668 217.989 436.378 216.968C439.728 214.967 445.319 212.467 453.297 209.524C469.083 203.701 490.88 197.328 514.989 190.29L506.02 159.572ZM631.455 111.657C632.954 113.2 632.045 112.996 632.003 111.201C631.965 109.53 632.758 109.262 631.552 110.725C628.618 114.286 621.061 119.481 607.554 125.629C581.452 137.51 542.861 148.816 506.02 159.572L514.989 190.29C550.993 179.778 592.146 167.802 620.811 154.754C634.688 148.437 648.271 140.755 656.249 131.074C660.499 125.916 664.19 118.935 663.995 110.464C663.797 101.871 659.675 94.7824 654.41 89.361L631.455 111.657ZM509.816 81.4314C530.964 76.7834 557.175 79.6592 581.176 86.687C605.601 93.839 624.255 104.244 631.455 111.657L654.409 89.361C641.537 76.1085 616.639 63.7274 590.169 55.9765C563.274 48.1014 531.246 43.9577 502.947 50.1774L509.816 81.4314Z" fill="url(#paint1_linear_1_8292)" mask="url(#path-1-outside-1_1_8292)"/>
<path d="M373.547 175.793L360.114 168.649C358.012 169.732 353.523 172.055 352.383 172.689C350.957 173.482 347.893 180.592 348.046 181.794C348.169 182.756 347.116 190.465 346.575 194.199L350.692 202.531L368.826 196.247L377.965 184.086L373.547 175.793Z" fill="white"/>
<path fill-rule="evenodd" clip-rule="evenodd" d="M349.971 200.272C349.971 200.254 349.971 200.236 349.971 200.219C349.977 196.633 350.204 191.964 351.03 187.337C351.876 182.604 353.238 178.562 355.104 175.767C356.8 173.227 358.686 171.972 361.249 171.666M349.971 200.272C350.73 200.516 351.551 200.773 352.423 201.037C357.282 202.512 363.461 204.135 369.249 204.961C375.175 205.808 378.998 205.549 380.748 204.917C380.723 204.509 380.631 203.853 380.356 202.884C376.636 189.807 372.572 181.353 368.754 176.491C365.046 171.771 362.548 171.511 361.249 171.666M341.341 206.67C341.341 206.67 337.649 165.562 360.201 162.874C371.055 161.581 381.165 173.366 388.873 200.462C396.58 227.558 341.341 206.67 341.341 206.67Z" fill="#30374F"/>
<path d="M498.251 61.1557C452.088 76.2351 376.207 188.133 344.744 194.729C317.049 200.537 153.882 166.283 110.082 168.214C49.4984 170.884 -10.8575 328.332 75.2978 317.71C169.019 306.155 314.308 227.658 359.662 237.278C385.018 242.66 416.295 289.655 430.426 297.804C448.208 319.852 462.07 350.165 499.142 341.84C519.925 342.144 586.551 295.696 573.825 265.601C561.98 237.589 407.972 234.715 415.917 209.319C415.485 183.313 675.49 144.986 631.529 97.5105C611.84 76.2468 546.366 50.3501 498.251 61.1557Z" fill="white"/>
<path fill-rule="evenodd" clip-rule="evenodd" d="M359.661 237.278C336.234 232.309 286.145 250.85 230.271 271.531C177.973 290.89 120.608 312.123 75.2967 317.71C-10.8587 328.332 49.4973 170.884 110.08 168.214C131.149 167.285 179.838 174.729 227.782 182.059C279.509 189.967 330.37 197.743 344.743 194.729C359.541 191.627 384.166 165.229 410.903 136.567C441.012 104.29 473.799 69.1425 498.25 61.1556C543.203 42.5031 611.838 76.2467 631.528 97.5104C658.071 126.175 573.802 151.505 502.953 172.801C456.459 186.776 415.745 199.015 415.916 209.318C411.9 222.154 449.252 229.236 488.712 236.718C527.329 244.041 567.965 251.746 573.824 265.601C586.55 295.695 519.924 342.144 499.141 341.84C468.083 348.815 453.315 328.67 438.884 308.986C436.09 305.175 433.309 301.381 430.425 297.804C425.284 294.84 417.875 286.735 409.307 277.362C394.322 260.97 375.793 240.702 359.661 237.278ZM406.288 207.809C405.511 211.343 405.97 214.884 407.531 218.083C409.156 221.412 411.722 223.876 414.173 225.685C418.987 229.238 425.668 231.927 432.642 234.136C466.898 244.987 596.217 261.319 542.688 307.794C534.396 314.994 525.118 321.295 516.804 325.727C512.649 327.942 508.871 329.618 505.689 330.71C502.368 331.85 500.27 332.154 499.283 332.14L498.135 332.123L497.015 332.374C489.165 334.138 483.044 333.761 478.025 332.272C472.96 330.768 468.43 327.954 464.04 324.002C459.589 319.995 455.479 315.001 451.198 309.319C449.826 307.498 448.39 305.54 446.914 303.528C444.027 299.592 440.987 295.448 437.976 291.714L436.839 290.305L435.271 289.4C433.186 288.198 429.536 284.848 424.029 279.01C421.666 276.503 419.151 273.753 416.46 270.809C416.198 270.523 415.935 270.235 415.67 269.945C412.701 266.699 409.546 263.257 406.289 259.825C399.81 252.999 392.702 245.964 385.429 240.238C378.298 234.623 370.184 229.594 361.675 227.788C354.371 226.239 345.825 226.582 336.854 227.9C327.76 229.236 317.537 231.684 306.588 234.84C284.718 241.144 259.032 250.548 232.251 260.455C116.487 300.681 -0.535467 319.277 75.7131 201.457C87.8711 187.273 99.3342 178.398 110.508 177.905C120.483 177.466 138.072 179.115 160.078 181.979C180.193 184.597 203.285 188.127 226.342 191.652C228.224 191.94 230.106 192.228 231.986 192.515C256.817 196.308 281.342 200.011 301.406 202.398C311.436 203.591 320.492 204.473 327.997 204.866C335.22 205.244 341.919 205.233 346.734 204.224M406.288 207.809C406.8 202.876 409.863 199.293 412.18 197.16C414.968 194.595 418.584 192.363 422.385 190.387C430.065 186.395 440.606 182.386 452.497 178.364C466.398 173.662 483.119 168.634 500.466 163.418C512.63 159.76 525.102 156.01 537.125 152.214C566.946 142.801 594.302 133.03 611.413 122.986C644.953 103.297 601.992 87.79 581.153 81.263C514.507 60.3884 460.392 97.7341 418 143.182C405.511 156.571 393.228 169.739 382.194 180.227C375.918 186.193 369.83 191.503 364.141 195.592C358.627 199.554 352.672 202.978 346.734 204.224" fill="#30374F"/>
<path d="M333.889 243.017C339.367 229.391 344 225.052 348.161 220.453C353.245 214.834 380.193 204.333 391.057 209.012C398.795 212.346 415.687 228.504 424.779 242.724C481.753 261.916 529.965 304.599 527.975 383.393C518.417 450.728 464.709 489.864 393.527 493.914C254.834 501.804 204.253 311.766 333.889 243.017Z" fill="#30374F"/>
<path d="M340.141 247.496C344.049 236.606 348.768 228.873 353.149 226.481C359.247 223.151 381.302 217.184 391.211 219.791C398.339 222.794 411.298 235.366 419.685 248.148C472.165 265.448 518.939 307.839 517.196 378.6C508.472 439.063 459.065 474.149 393.528 477.705C265.836 484.634 220.856 309.092 340.141 247.496Z" fill="white"/>
<path fill-rule="evenodd" clip-rule="evenodd" d="M452.151 268.587C420.779 265.621 378.623 267.192 355.284 289.314C350.025 294.3 345.95 301.511 343.253 309.109C340.536 316.762 339.077 325.198 339.37 332.892C339.673 340.845 343.118 350.781 347.955 359.787C352.786 368.781 359.355 377.502 366.457 382.74C371.237 386.265 375.989 389.548 381.318 391.515C386.885 393.57 392.872 394.127 399.974 392.649C404.467 391.714 408.866 390.408 413.259 389.104C415.722 388.372 418.183 387.642 420.657 386.977C429.512 384.6 440.048 382.152 451.301 380.863C473.823 378.284 498.63 380.394 518.599 396.494C520.595 398.103 523.761 397.985 525.671 396.231C526.544 395.429 527.003 394.425 527.054 393.417C527.106 393.5 527.156 393.582 527.205 393.664C555.665 306.271 494.127 274.653 458.23 269.393C456.74 269.101 454.763 268.833 452.151 268.587Z" fill="#30374F"/>
<path fill-rule="evenodd" clip-rule="evenodd" d="M456.694 274.822C429.541 272.385 393.044 273.78 372.8 292.418C368.238 296.618 364.698 302.687 362.349 309.079C359.984 315.517 358.706 322.61 358.945 329.077C359.193 335.762 362.158 344.107 366.329 351.669C370.495 359.221 376.166 366.539 382.305 370.93C386.437 373.885 390.545 376.636 395.155 378.28C399.97 379.997 405.153 380.454 411.303 379.199C415.194 378.405 419.005 377.3 422.81 376.196C424.944 375.576 427.075 374.958 429.218 374.395C436.889 372.381 446.014 370.305 455.758 369.201C475.259 366.993 496.731 368.722 513.989 382.22C515.714 383.569 518.455 383.464 520.112 381.986C520.868 381.311 521.267 380.467 521.314 379.621C521.358 379.69 521.402 379.76 521.444 379.828C546.222 306.362 493.087 279.882 462.013 275.5C460.717 275.253 458.989 275.028 456.694 274.822Z" fill="white"/>
</g>
<defs>
<filter id="filter0_b_1_8292" x="-29.0997" y="7.16626" width="733.102" height="538.695" filterUnits="userSpaceOnUse" color-interpolation-filters="sRGB">
<feFlood flood-opacity="0" result="BackgroundImageFix"/>
<feGaussianBlur in="BackgroundImageFix" stdDeviation="20"/>
<feComposite in2="SourceAlpha" operator="in" result="effect1_backgroundBlur_1_8292"/>
<feBlend mode="normal" in="SourceGraphic" in2="effect1_backgroundBlur_1_8292" result="shape"/>
</filter>
<linearGradient id="paint0_linear_1_8292" x1="466.597" y1="396.129" x2="674.897" y2="369.79" gradientUnits="userSpaceOnUse">
<stop offset="0.015625" stop-color="#6947C3"/>
<stop offset="0.502392" stop-color="#FF6F30"/>
<stop offset="0.984375" stop-color="#FFBD00"/>
</linearGradient>
<linearGradient id="paint1_linear_1_8292" x1="466.597" y1="396.129" x2="674.897" y2="369.79" gradientUnits="userSpaceOnUse">
<stop offset="0.015625" stop-color="#6947C3"/>
<stop offset="0.502392" stop-color="#FF6F30"/>
<stop offset="0.984375" stop-color="#FFBD00"/>
</linearGradient>
</defs>
</svg>
