<svg width="282" height="216" viewBox="0 0 282 216" fill="none" xmlns="http://www.w3.org/2000/svg">
<g clip-path="url(#clip0_2069_12379)">
<g filter="url(#filter0_dd_2069_12379)">
<path fill-rule="evenodd" clip-rule="evenodd" d="M204.273 100.783C204.331 100.792 204.395 100.801 204.464 100.811C204.845 100.865 205.385 100.939 206.061 101.025C207.409 101.196 209.307 101.415 211.569 101.613C216.039 102.004 222.166 102.337 228.358 102.002C234.232 101.685 241.554 100.714 247.571 97.6075C250.708 95.9885 254.182 93.4373 256.634 89.3903C259.231 85.1057 260.044 80.1911 259.339 75.275C258.628 70.3192 256.179 65.4556 253.753 61.5866C251.143 57.4225 247.752 53.1453 243.939 49.2252C236.72 41.803 226.128 33.7712 214.675 32.2885C206.188 31.1898 197.51 34.1651 190.612 37.2932C188.44 38.2785 186.265 39.366 184.125 40.5017C183.652 39.5171 183.092 38.5767 182.456 37.6904C179.604 33.7218 175.575 31.2664 172.251 29.7036C165.408 26.4861 156.522 24.7556 148.384 24.0706C140.183 23.3803 131.333 23.6356 124.304 25.2856C120.953 26.0721 116.808 27.4418 113.406 30.1524C112.337 31.0048 111.19 32.11 110.166 33.5115C106.624 29.5461 103.013 25.6012 99.5811 22.1441C96.8994 19.4425 94.1589 16.8656 91.4988 14.7242C88.9818 12.6981 85.8784 10.5165 82.5116 9.25489C70.1647 4.62834 56.5691 7.96068 47.0615 11.7207C42.0309 13.7102 37.4642 16.0895 33.8036 18.3475C30.4848 20.3948 26.9235 22.9412 24.6887 25.5264C21.4198 29.308 17.9215 35.601 17.872 42.9992C17.8455 46.9565 18.8318 51.2051 21.3733 55.0877C23.8818 58.92 27.4454 61.698 31.5285 63.5991C43.7032 69.2666 64.1084 74.7655 82.1986 79.6403C82.5171 79.7261 82.8349 79.8118 83.1519 79.8972C90.2738 81.8167 97.1151 83.6614 103.267 85.4347C101.145 86.4505 99.0492 87.5592 97.0145 88.7551C88.0291 94.0367 78.2533 102.187 74.0295 113.604C68.3087 129.071 71.6742 144.47 79.046 156.592C86.3376 168.582 97.9183 178.157 110.659 183.304C123.674 188.562 138.434 189.014 151.41 184.656C164.494 180.262 176.396 170.692 181.994 155.557C189.419 135.485 182.693 113.561 170.535 98.6761C173.761 98.8144 177.201 98.9931 180.627 99.1899C186.777 99.5432 192.786 99.949 197.264 100.267C199.501 100.426 201.352 100.563 202.641 100.659C203.286 100.708 203.79 100.746 204.131 100.772L204.273 100.783Z" fill="url(#paint0_linear_2069_12379)"/>
<path d="M211.529 44.7678C196.153 42.5822 171.711 62.2867 159.588 67.207C158.76 67.5431 150.627 87.0999 150.081 87.9727C142.977 99.3315 132.908 92.7615 127.993 70.8629C119.297 69.0697 90.6206 24.4658 77.8144 19.3724C61.171 12.7529 36.0844 27.5476 31.8895 32.2799C27.6945 37.0122 24.1185 46.8761 34.2474 51.8757C57.3153 63.2599 116.815 75.2514 128.561 84.141C134.799 86.1483 119.686 57.4691 116.938 43.6675C114.19 29.866 178.897 34.1668 172.13 50.8097C170.235 55.4694 165.132 59.9818 159.588 67.207C154.022 78.9072 149.015 89.3156 149.717 88.1498C151.085 85.8795 202.223 90.4442 202.223 90.4442C202.223 90.4442 247.169 98.0768 245.136 78.7513C244.102 68.9164 226.906 46.9535 211.529 44.7678Z" fill="white"/>
<path d="M142.697 65.7691C135.79 64.4913 132.086 79.8501 132.086 79.8501C132.086 79.8501 146.649 91.0478 147.35 81.1966C148.05 71.3455 146.021 66.384 142.697 65.7691Z" fill="white"/>
<path fill-rule="evenodd" clip-rule="evenodd" d="M224.331 89.3349C229.905 89.0596 243.846 88.1833 242.887 78.8438C242.152 71.6861 236.241 64.514 231.148 60.5717C223.152 54.3826 217.424 51.5148 210.452 50.5415C207.075 50.07 203.028 50.7936 198.528 52.3779C194.051 53.9542 185.554 57.5153 180.82 60.147C175.907 62.2998 172.932 63.6668 169.974 65.0258C168.607 65.6541 167.243 66.2807 165.694 66.9824L165.764 67.1763C164.594 67.6306 163.461 68.0639 162.364 68.4761C161.962 68.6546 161.546 68.8388 161.114 69.0295C159.956 71.4624 158.829 73.8249 157.779 76.0269L157.775 76.0354L156.563 78.5775C155.852 80.2032 155.149 81.8249 154.512 83.293L154.511 83.2955C154.215 83.9785 153.933 84.6282 153.672 85.2296C155.06 85.1885 156.713 85.1909 158.542 85.2254C163.574 85.3201 170.13 85.6616 176.614 86.0724C182.083 86.4189 187.583 87.0104 193.096 87.6032C203.507 88.7227 213.962 89.847 224.331 89.3349ZM158.214 65.2189C170.23 45.2183 166.866 40.3312 144.68 38.2741C137.319 37.5916 131.073 37.6852 125.787 38.9158C114.928 41.4443 121.128 54.1704 125.458 63.0563C126.208 64.5956 126.902 66.0197 127.441 67.2556C129.248 68.0881 130.959 68.7194 132.667 69.1529C133.707 67.4619 135.022 65.7022 136.621 64.3656C138.573 62.7351 141.221 61.5378 144.244 62.3224C147.028 63.0448 148.786 65.2697 149.752 67.9952C152.262 67.2837 155.052 66.3625 158.214 65.2189ZM133.068 80.2848C133.396 79.4483 134.391 76.9747 135.722 74.3024C137.405 74.4528 139.151 74.4534 141.006 74.2973C143.076 74.1231 145.27 73.7542 147.653 73.1939C147.838 75.5525 147.681 78.381 147.243 81.5518C146.022 90.3893 135.381 82.5005 133.303 80.8664C133.225 80.6753 133.146 80.4814 133.068 80.2848ZM136.502 86.904C136.768 87.0512 137.038 87.1944 137.309 87.3321C139.201 88.2911 141.824 89.3245 144.368 88.9246C145.448 88.7549 146.552 88.3196 147.526 87.512C147.511 87.556 147.49 87.6189 147.47 87.6921C147.457 87.7384 147.437 87.8159 147.419 87.9124C146.086 89.7191 144.799 90.6472 143.68 91.0056C142.419 91.4093 141.009 91.2067 139.422 90.0373C138.456 89.3256 137.471 88.2848 136.502 86.904ZM150.377 81.3406C150.809 77.967 150.912 74.9764 150.668 72.4135C152.075 72.0185 153.548 71.5655 155.099 71.0552C154.352 72.6946 153.517 74.582 152.692 76.4661L152.625 76.6189C151.799 78.3519 151.04 79.9448 150.377 81.3406ZM169.627 59.1823C169.279 59.3895 168.935 59.5937 168.595 59.7946C168.672 59.7027 168.75 59.611 168.827 59.5195C171.031 56.8991 173.028 54.3266 174.148 51.5769C175.335 48.6615 174.931 45.9065 173.418 43.6159C164.386 29.9337 131.008 26.8677 117.576 37.4543C111.761 42.0375 116.198 51.9975 119.126 58.5707C119.694 59.8449 120.205 60.9919 120.573 61.9477C120.342 61.6977 120.108 61.4419 119.871 61.1808C115.919 56.8304 112.119 51.5782 108.229 46.2024C99.679 34.3858 90.697 21.9722 78.7259 17.2283C64.8322 11.7225 40.9779 18.9457 30.3793 30.9409C28.025 33.6054 25.7301 37.805 25.5369 42.2505C25.4381 44.5244 25.8937 46.8627 27.1782 49.009C28.4567 51.1451 30.4726 52.9525 33.2865 54.3387C44.5494 59.8863 64.2317 65.5067 82.7023 70.7812L82.7024 70.7812L82.7475 70.7941C93.1707 73.7706 103.226 76.642 111.343 79.357C118.982 81.9125 124.569 84.2273 127.185 86.2088L127.466 86.4217L127.799 86.528C128.408 86.7231 129.296 86.8727 130.21 86.4611C130.409 86.3718 130.589 86.2654 130.752 86.1461C132.557 89.6742 134.61 92.3215 136.845 93.9677C139.27 95.755 142.014 96.4238 144.796 95.533C147.267 94.7416 149.446 92.8209 151.297 90.1072C151.574 90.0728 151.921 90.0407 152.343 90.0139C153.786 89.922 155.828 89.9063 158.306 89.9529C163.245 90.0459 169.728 90.3826 176.196 90.7925C181.697 91.1411 187.226 91.7314 192.768 92.323C203.301 93.4475 213.876 94.5766 224.374 94.0582C231.278 93.7173 241.201 92.8519 245.609 85.849C256.225 68.9867 224.972 43.9959 211.907 42.1721C207.6 41.5708 202.822 42.5223 198.029 44.2095C193.214 45.9048 188.208 48.407 183.384 51.0882C179.733 53.1179 176.128 55.2826 172.767 57.3013L172.767 57.3015L172.764 57.303C171.692 57.9473 170.644 58.5768 169.627 59.1823ZM112.789 74.8378C118.768 76.8378 123.936 78.824 127.437 80.7886C126.889 78.5713 125.794 75.4731 124.412 71.8364C123.745 71.3831 123.08 70.8575 122.428 70.3006C120.691 68.8149 118.742 66.8292 116.667 64.5454C112.828 60.3189 109.109 55.1181 105.289 49.7769C97.0769 38.2931 88.4009 26.1609 77.0726 21.6717C69.4998 18.6707 59.6939 20.5109 50.9568 23.9534C42.0402 27.4665 28.3475 38.2384 39.8005 47.6563C48.352 54.6882 80.9024 64.7744 91.309 67.7483C97.8713 69.6237 101.932 71.055 106.285 72.589C108.298 73.2986 110.374 74.0301 112.789 74.8378ZM140.793 69.7687C139.91 69.8431 139.056 69.8766 138.224 69.869C139.885 67.3414 141.707 65.4663 143.322 65.839C144.854 66.1924 145.948 67.2196 146.662 68.7974C144.519 69.2973 142.588 69.6177 140.793 69.7687Z" fill="#42307D"/>
<path d="M139.112 74.7508C135.226 74.8318 128.765 73.9308 124.19 71.4019L124.719 78.8371C129.199 81.3724 136.073 81.9341 129.207 89.0729C128.792 89.5038 142.663 85.8623 143.843 85.594C150.526 84.0752 159.106 84.3806 159.106 84.3806C165.402 77.6954 175.2 63.911 168.218 66.3046C162.592 68.2337 147.16 74.583 139.112 74.7508Z" fill="white"/>
<path fill-rule="evenodd" clip-rule="evenodd" d="M148.651 79.5598C145.081 76.8134 138.287 76.8894 133.872 77.3333C132.597 77.4615 130.59 77.7839 129.007 78.9804C127.152 80.3829 124.152 83.5903 121.803 86.9507C107.057 91.1452 91.6977 102.85 86.5838 119.956C78.8633 145.789 92.8403 170.546 116.398 177.937C128.089 181.605 141.095 180.836 152.193 175.971C163.332 171.088 172.786 161.947 176.718 148.791C183.148 127.281 172.036 104.8 156.03 93.7334C154.182 88.7087 153.069 82.9609 148.651 79.5598Z" fill="#42307D"/>
<path fill-rule="evenodd" clip-rule="evenodd" d="M141.855 82.8136C143.142 83.1842 144.627 83.7571 145.805 84.685C147.357 85.9082 148.764 88.0629 149.855 90.0787C150.274 90.8536 150.686 91.6825 151.079 92.5454C143.091 89.4903 138.372 90.4423 136.561 90.8075C136.204 90.8795 135.96 90.9287 135.827 90.9199C136.002 90.9589 136.344 90.987 136.824 91.0264C139.584 91.2535 146.919 91.8568 153.484 97.0673C154.108 97.5629 154.57 97.809 154.908 97.8768C167.691 108.441 176.275 128.187 170.885 146.524C167.386 158.434 159.026 166.727 149.192 171.172C139.393 175.601 126.86 176.488 116.56 173.2C95.805 166.575 82.2668 144.146 89.1392 120.76C93.6912 105.274 109.347 93.8011 122.36 89.9692C125.017 87.0098 127.348 84.7764 128.988 83.5031C130.386 82.4168 132.157 82.12 133.281 82.0008C134.621 81.8588 136.11 81.8813 137.547 82.0187C138.99 82.1566 140.49 82.4208 141.855 82.8136Z" fill="white"/>
<path fill-rule="evenodd" clip-rule="evenodd" d="M130.356 146.609C140.907 148.749 148.224 140.15 151.478 129.797C154.235 121.029 156.409 107.908 145.569 102.777C140.143 100.209 127.288 97.5102 114.784 99.2979C97.8536 101.718 90.9448 107.166 87.6988 110.664C84.4609 114.017 81.8722 118.627 81.1875 124.226C78.8724 143.16 87.9534 151.155 91.6549 149.089L91.657 149.091C91.6615 149.088 91.666 149.084 91.6705 149.08C91.7158 149.055 91.7604 149.027 91.8041 148.999C92.0678 148.825 92.3289 148.626 92.5862 148.405C101.168 142.453 114.486 143.39 130.356 146.609Z" fill="white"/>
<path fill-rule="evenodd" clip-rule="evenodd" d="M92.2146 148.257L92.2126 148.255C88.6141 150.282 79.7723 142.406 82.0047 123.786C82.6648 118.28 85.1782 113.749 88.3244 110.456C91.4783 107.02 98.1932 101.671 114.66 99.3134C126.821 97.5722 139.328 100.244 144.61 102.778C155.159 107.839 153.058 120.742 150.386 129.362C147.23 139.54 140.122 147.988 129.857 145.869C114.416 142.681 101.46 141.741 93.1179 147.584C92.8678 147.8 92.614 147.996 92.3576 148.167C92.3151 148.195 92.2719 148.222 92.2278 148.247L92.2146 148.257ZM90.3256 151.366C90.0166 150.953 90.596 150.965 90.3956 150.912C90.0433 150.82 90.3382 151.049 89.3516 150.718C87.4393 149.624 85.6839 147.768 84.2689 145.365C81.4128 140.516 79.6966 133.055 80.887 123.126C81.6527 116.739 84.5655 111.499 88.1719 107.714C91.9671 103.59 100.389 97.3408 114.261 95.3547C127.023 93.5275 141.333 95.1987 147.226 98.0262C155.089 101.798 157.911 107.782 158.458 113.651C158.985 119.316 158.05 126.781 156.667 131.241C154.96 136.747 151.484 143.165 147.405 146.848C143.22 150.627 137.863 152.607 131.603 151.314C123.958 149.736 113.803 147.095 107.948 147.186C102.158 147.277 98.1242 147.686 94.7415 150.004C93.278 150.939 92.029 151.381 91.0994 151.263M90.3256 151.366C90.9442 151.581 90.5655 151.503 91.0994 151.263Z" fill="#30374F"/>
</g>
</g>
<defs>
<filter id="filter0_dd_2069_12379" x="-2.12842" y="6.99902" width="281.709" height="220.619" filterUnits="userSpaceOnUse" color-interpolation-filters="sRGB">
<feFlood flood-opacity="0" result="BackgroundImageFix"/>
<feColorMatrix in="SourceAlpha" type="matrix" values="0 0 0 0 0 0 0 0 0 0 0 0 0 0 0 0 0 0 127 0" result="hardAlpha"/>
<feMorphology radius="4" operator="erode" in="SourceAlpha" result="effect1_dropShadow_2069_12379"/>
<feOffset dy="8"/>
<feGaussianBlur stdDeviation="4"/>
<feComposite in2="hardAlpha" operator="out"/>
<feColorMatrix type="matrix" values="0 0 0 0 0.0196078 0 0 0 0 0.0431373 0 0 0 0 0.286275 0 0 0 0.03 0"/>
<feBlend mode="normal" in2="BackgroundImageFix" result="effect1_dropShadow_2069_12379"/>
<feColorMatrix in="SourceAlpha" type="matrix" values="0 0 0 0 0 0 0 0 0 0 0 0 0 0 0 0 0 0 127 0" result="hardAlpha"/>
<feMorphology radius="4" operator="erode" in="SourceAlpha" result="effect2_dropShadow_2069_12379"/>
<feOffset dy="20"/>
<feGaussianBlur stdDeviation="12"/>
<feComposite in2="hardAlpha" operator="out"/>
<feColorMatrix type="matrix" values="0 0 0 0 0.0196078 0 0 0 0 0.0431373 0 0 0 0 0.286275 0 0 0 0.08 0"/>
<feBlend mode="normal" in2="effect1_dropShadow_2069_12379" result="effect2_dropShadow_2069_12379"/>
<feBlend mode="normal" in="SourceGraphic" in2="effect2_dropShadow_2069_12379" result="shape"/>
</filter>
<linearGradient id="paint0_linear_2069_12379" x1="60.4708" y1="110.519" x2="200.197" y2="132.232" gradientUnits="userSpaceOnUse">
<stop offset="0.166667" stop-color="#6947C3"/>
<stop offset="0.510417" stop-color="#FF6F30"/>
<stop offset="0.932292" stop-color="#FFBD00"/>
</linearGradient>
<clipPath id="clip0_2069_12379">
<rect width="282" height="216" fill="white"/>
</clipPath>
</defs>
</svg>
