<svg width="113" height="34" viewBox="0 0 113 34" fill="none" xmlns="http://www.w3.org/2000/svg">
<g clip-path="url(#clip0_1_10065)">
<path d="M36.1817 5.43836C35.857 5.39156 35.5381 5.36816 35.2308 5.36816C34.0887 5.36816 33.0915 5.70744 32.2334 6.39183C31.3754 7.06453 30.755 8.09989 30.3724 9.48623H30.1579V6.28654C30.1579 5.93557 29.8738 5.64894 29.5259 5.64894H24.3428C23.9949 5.64894 23.7108 5.92972 23.7108 6.28069L23.6992 26.0345C23.6992 26.3855 23.9833 26.6721 24.3312 26.6721H29.7056C30.0535 26.6721 30.3376 26.3914 30.3376 26.0404V15.2597C30.3434 14.4174 30.5231 13.692 30.8768 13.072C31.2362 12.4402 31.7348 11.9547 32.3552 11.6096C32.9871 11.2528 33.7003 11.0773 34.4829 11.0773C35.0743 11.0773 35.6193 11.1416 36.1643 11.282C36.46 11.3581 36.7846 11.2352 36.9296 10.9603L39.3066 6.50882C38.5993 6.08766 37.2137 5.5846 36.1817 5.43836Z" fill="#42307D"/>
<path d="M17.2057 1.43742C15.6983 0.618486 13.901 0.20317 11.8197 0.20317H1.60411C0.908383 0.19732 0.346006 0.764724 0.346006 1.46667L0.328613 26.023C0.328613 26.3739 0.612701 26.6606 0.960563 26.6606H6.4162C6.76406 26.6606 7.04815 26.3798 7.04815 26.0288V19.5242H11.6109C13.7387 19.5242 15.5708 19.1322 17.1188 18.3367C18.6667 17.5412 19.8553 16.4239 20.6901 14.9849C21.5308 13.5342 21.954 11.8437 21.954 9.90753C21.954 7.97134 21.5424 6.29253 20.7249 4.84184C19.9017 3.37946 18.7305 2.24465 17.2115 1.43157L17.2057 1.43742ZM14.4576 12.1654C14.104 12.803 13.5822 13.3003 12.898 13.6571C12.2197 14.0139 11.3732 14.1894 10.3586 14.1894H7.04815V6.29838C7.04815 5.9474 7.33224 5.66078 7.6801 5.66078H10.3586C11.3616 5.66078 12.2081 5.83626 12.898 6.18139C13.588 6.52651 14.104 7.02372 14.4576 7.66131C14.8113 8.29306 14.9852 9.0418 14.9852 9.90753C14.9852 10.7733 14.8055 11.5162 14.4518 12.1654H14.4576Z" fill="#42307D"/>
<path d="M77.3453 6.56154C76.0872 5.79525 74.7363 5.40918 73.2869 5.40918C72.1911 5.40918 71.2519 5.60221 70.4634 5.98243C69.6865 6.3568 69.043 6.83646 68.5386 7.43312C68.04 8.02392 67.6573 8.64397 67.3848 9.28157H67.1819V6.31586C67.1819 5.96488 66.8978 5.67826 66.5499 5.67826H61.245C60.8972 5.67826 60.6131 5.95904 60.6131 6.31001L60.5957 33.212C60.5957 33.7033 61.1233 34.0075 61.5407 33.7618L66.9152 31.2641C67.1123 31.1529 67.2283 30.9424 67.2283 30.7142V23.2912H67.3674C67.6457 23.9405 68.0458 24.5488 68.5617 25.1104C69.0835 25.6778 69.7329 26.134 70.4982 26.4792C71.2693 26.8243 72.1737 26.9998 73.2231 26.9998C74.7595 26.9998 76.1567 26.602 77.4148 25.8006C78.6845 24.9992 79.6875 23.7942 80.4296 22.1915C81.1833 20.5887 81.5602 18.594 81.5602 16.2133C81.5602 13.7389 81.1718 11.7033 80.3949 10.1063C79.618 8.50943 78.5976 7.32782 77.3337 6.56154H77.3453ZM74.3131 19.1497C74.0232 19.9862 73.5942 20.6413 73.026 21.1035C72.4578 21.5597 71.7621 21.7879 70.9504 21.7879C70.1387 21.7879 69.4546 21.5597 68.8748 21.1035C68.3066 20.6355 67.866 19.9862 67.5587 19.1439C67.2631 18.3015 67.1123 17.3188 67.1123 16.1899C67.1123 15.0609 67.2631 14.0489 67.5645 13.2183C67.8718 12.3877 68.3124 11.7501 68.8806 11.3055C69.4488 10.8609 70.1445 10.6328 70.9562 10.6387C71.7679 10.6445 72.4694 10.8668 73.0318 11.3231C73.6 11.7793 74.029 12.4228 74.3189 13.2534C74.6145 14.084 74.7653 15.0667 74.7653 16.1957C74.7653 17.3247 74.6145 18.3132 74.3131 19.1497Z" fill="#42307D"/>
<path d="M111.389 0.232285L106.015 2.61889C105.818 2.73003 105.69 2.94062 105.69 3.1746L105.679 26.0872C105.679 26.4382 105.963 26.7248 106.311 26.7248H111.685C112.033 26.7248 112.317 26.444 112.317 26.093L112.334 0.78799C112.334 0.302479 111.818 -0.00169627 111.395 0.232285H111.389Z" fill="#42307D"/>
<path d="M101.012 8.18771C100.119 7.27519 99.0519 6.58494 97.8228 6.11698C96.5937 5.64902 95.237 5.41504 93.7528 5.41504C91.6541 5.41504 89.8336 5.8713 88.2856 6.77798C86.7376 7.67881 85.5375 8.94815 84.691 10.5802C83.8388 12.2063 83.4155 14.1016 83.4097 16.2718C83.4039 18.4419 83.8272 20.4366 84.6678 22.0628C85.5143 23.6773 86.726 24.9232 88.303 25.8006C89.8858 26.6664 91.7642 27.1051 93.9442 27.1051C95.7646 27.1051 97.3648 26.8302 98.7446 26.2744C100.13 25.707 101.243 24.9232 102.096 23.9112C102.803 23.0748 103.302 22.1154 103.603 21.0333C103.707 20.6589 103.418 20.1558 103.035 20.1441H98.1301C97.8576 20.1324 97.6199 20.3021 97.4923 20.5419C97.3358 20.8285 97.1387 21.0859 96.9068 21.3023C96.5647 21.6241 96.1531 21.8639 95.6719 22.0277C95.1907 22.1915 94.6573 22.2734 94.0717 22.2734C93.2194 22.2734 92.4889 22.092 91.8744 21.7411C91.2598 21.3842 90.7844 20.887 90.4481 20.2494C90.1119 19.6001 89.9495 18.8455 89.9495 17.9915V17.816L102.902 17.8219C103.568 17.8219 103.783 17.5704 103.841 17.1843C103.841 17.1843 104.171 14.318 103.099 11.5629C102.577 10.2292 101.904 9.09439 101.012 8.18186V8.18771ZM89.9553 13.9319C89.9901 13.2534 90.1698 12.6509 90.4945 12.1127C90.8366 11.5395 91.3062 11.0891 91.8918 10.7557C92.4773 10.4164 93.1441 10.2526 93.8862 10.2526C94.6283 10.2526 95.266 10.4105 95.8284 10.7323C96.3966 11.0423 96.843 11.4751 97.1735 12.0309C97.4981 12.5866 97.6663 13.2242 97.6721 13.9319H89.9553Z" fill="#42307D"/>
<path d="M53.8703 6.7663C52.3049 5.85377 50.4323 5.39751 48.2407 5.39166C46.0492 5.38581 44.1707 5.84792 42.5938 6.7546C41.0284 7.65542 39.8225 8.92477 38.9702 10.5568C38.1295 12.183 37.7063 14.0724 37.7063 16.2367C37.7063 18.401 38.1237 20.2845 38.9644 21.9166C39.8109 23.5427 41.0226 24.8121 42.5822 25.7246C44.1533 26.6313 46.0376 27.0817 48.2233 27.0817C50.4091 27.0817 52.2875 26.6313 53.8529 25.7305C55.4299 24.8179 56.6358 23.5486 57.4765 21.9283C58.3287 20.2962 58.752 18.401 58.7578 16.2484C58.7636 14.0958 58.3345 12.1947 57.4881 10.5685C56.6474 8.93647 55.4415 7.66712 53.8703 6.76045V6.7663ZM51.557 19.2492C51.2671 20.1266 50.8439 20.811 50.2931 21.3024C49.7423 21.7937 49.0698 22.0394 48.2697 22.0394C47.4696 22.0394 46.7507 21.7937 46.1825 21.2965C45.6202 20.8052 45.1911 20.1208 44.8955 19.2433C44.6056 18.3659 44.4606 17.3539 44.4606 16.2016C44.4606 15.0492 44.6056 14.0139 44.8955 13.1364C45.1969 12.259 45.626 11.5746 46.1883 11.0832C46.7565 10.5919 47.4522 10.3462 48.2755 10.3462C49.0988 10.3462 49.7423 10.5919 50.2989 11.0891C50.8497 11.5805 51.2729 12.2648 51.557 13.1423C51.8527 14.0197 52.0034 15.0434 52.0034 16.2074C52.0034 17.3715 51.8527 18.3718 51.5512 19.2433L51.557 19.2492Z" fill="#42307D"/>
</g>
<defs>
<clipPath id="clip0_1_10065">
<rect width="112" height="33.6991" fill="white" transform="translate(0.328613 0.150391)"/>
</clipPath>
</defs>
</svg>
