<svg width="146" height="45" viewBox="0 0 146 45" fill="none" xmlns="http://www.w3.org/2000/svg">
<path d="M46.4168 6.96331C45.9965 6.90167 45.5836 6.87085 45.1858 6.87085C43.7071 6.87085 42.4161 7.31773 41.3052 8.2192C40.1943 9.10526 39.3912 10.469 38.8958 12.2951H38.6181V8.08051C38.6181 7.61822 38.2503 7.24068 37.8 7.24068H31.0896C30.6393 7.24068 30.2715 7.61052 30.2715 8.07281L30.2565 34.0922C30.2565 34.5544 30.6243 34.932 31.0746 34.932H38.0326C38.483 34.932 38.8508 34.5621 38.8508 34.0999V19.8998C38.8583 18.7903 39.091 17.8349 39.5488 17.0182C40.0142 16.186 40.6597 15.5465 41.4629 15.0919C42.281 14.6219 43.2042 14.3908 44.2175 14.3908C44.9831 14.3908 45.6887 14.4756 46.3943 14.6605C46.7771 14.7606 47.1974 14.5988 47.3851 14.2367L50.4625 8.3733C49.5468 7.81855 47.7528 7.15593 46.4168 6.96331Z" fill="#FCFAFF"/>
<path d="M21.8498 1.69317C19.8983 0.614488 17.5714 0.0674419 14.8768 0.0674419H1.65131C0.750595 0.059737 0.0225179 0.807109 0.0225179 1.73169L0 34.0767C0 34.539 0.367792 34.9166 0.818149 34.9166H7.88125C8.33161 34.9166 8.6994 34.5467 8.6994 34.0844V25.5166H14.6066C17.3613 25.5166 19.7332 25.0004 21.7372 23.9525C23.7413 22.9047 25.2801 21.433 26.3609 19.5376C27.4493 17.6268 27.9972 15.4001 27.9972 12.8498C27.9972 10.2995 27.4643 8.08821 26.4059 6.1774C25.3401 4.25119 23.8239 2.75644 21.8573 1.68546L21.8498 1.69317ZM18.292 15.8239C17.8341 16.6637 17.1586 17.3186 16.2729 17.7886C15.3947 18.2586 14.2988 18.4898 12.9853 18.4898H8.6994V8.09592C8.6994 7.63362 9.06719 7.25609 9.51755 7.25609H12.9853C14.2838 7.25609 15.3797 7.48723 16.2729 7.94182C17.1661 8.39641 17.8341 9.05132 18.292 9.89115C18.7499 10.7233 18.9751 11.7095 18.9751 12.8498C18.9751 13.9901 18.7424 14.9687 18.2845 15.8239H18.292Z" fill="#FCFAFF"/>
<path d="M99.7091 8.44266C98.0803 7.43333 96.3314 6.9248 94.4549 6.9248C93.0363 6.9248 91.8204 7.17907 90.7995 7.67988C89.7938 8.17299 88.9606 8.80479 88.3076 9.59069C87.6621 10.3689 87.1667 11.1856 86.8139 12.0254H86.5512V8.11906C86.5512 7.65677 86.1834 7.27923 85.733 7.27923H78.8651C78.4147 7.27923 78.0469 7.64906 78.0469 8.11135L78.0244 43.546C78.0244 44.1933 78.7075 44.5939 79.2479 44.2703L86.2059 40.9803C86.4611 40.8339 86.6112 40.5566 86.6112 40.2561V30.4786H86.7914C87.1517 31.3338 87.6696 32.1351 88.3376 32.8748C89.0131 33.6222 89.8538 34.2232 90.8446 34.6777C91.8429 35.1323 93.0138 35.3635 94.3724 35.3635C96.3615 35.3635 98.1704 34.8395 99.7992 33.784C101.443 32.7284 102.742 31.1412 103.702 29.0301C104.678 26.9189 105.166 24.2916 105.166 21.1557C105.166 17.8965 104.663 15.2152 103.657 13.1118C102.651 11.0084 101.33 9.452 99.6941 8.44266H99.7091ZM95.7835 25.0235C95.4082 26.1253 94.8528 26.9883 94.1172 27.597C93.3816 28.1979 92.4809 28.4984 91.43 28.4984C90.3792 28.4984 89.4935 28.1979 88.7429 27.597C88.0073 26.9806 87.4369 26.1253 87.0391 25.0158C86.6563 23.9063 86.4611 22.6119 86.4611 21.1249C86.4611 19.6378 86.6563 18.3049 87.0466 17.2108C87.4444 16.1167 88.0148 15.2769 88.7504 14.6913C89.486 14.1057 90.3867 13.8053 91.4376 13.813C92.4884 13.8207 93.3966 14.1134 94.1247 14.7144C94.8603 15.3154 95.4157 16.1629 95.791 17.257C96.1738 18.3511 96.369 19.6455 96.369 21.1326C96.369 22.6196 96.1738 23.9217 95.7835 25.0235Z" fill="#FCFAFF"/>
<path d="M143.784 0.10594L136.826 3.24953C136.571 3.39592 136.406 3.67329 136.406 3.98149L136.391 34.1615C136.391 34.6238 136.758 35.0013 137.209 35.0013H144.167C144.617 35.0013 144.985 34.6315 144.985 34.1692L145.008 0.837902C145.008 0.198398 144.339 -0.202255 143.792 0.10594H143.784Z" fill="#FCFAFF"/>
<path d="M130.348 10.5845C129.192 9.38252 127.811 8.47335 126.22 7.85696C124.629 7.24057 122.872 6.93237 120.951 6.93237C118.234 6.93237 115.877 7.53335 113.873 8.72761C111.869 9.91416 110.315 11.5861 109.219 13.7358C108.116 15.8777 107.568 18.3741 107.56 21.2326C107.553 24.0911 108.101 26.7185 109.189 28.8604C110.285 30.987 111.854 32.6281 113.895 33.7838C115.944 34.9242 118.376 35.502 121.199 35.502C123.556 35.502 125.627 35.1399 127.414 34.4079C129.207 33.6606 130.649 32.6281 131.752 31.2952C132.668 30.1934 133.313 28.9298 133.704 27.5044C133.839 27.0113 133.463 26.3486 132.968 26.3332H126.618C126.265 26.3178 125.957 26.5413 125.792 26.8572C125.59 27.2347 125.334 27.5737 125.034 27.8588C124.591 28.2826 124.058 28.5985 123.435 28.8142C122.812 29.0299 122.122 29.1378 121.364 29.1378C120.26 29.1378 119.315 28.899 118.519 28.4367C117.723 27.9667 117.108 27.3118 116.673 26.4719C116.237 25.6167 116.027 24.6228 116.027 23.4978V23.2667L132.795 23.2744C133.659 23.2744 133.936 22.9431 134.011 22.4346C134.011 22.4346 134.439 18.6592 133.051 15.0302C132.375 13.2735 131.504 11.7787 130.348 10.5768V10.5845ZM116.035 18.1507C116.08 17.2569 116.312 16.4633 116.733 15.7545C117.175 14.9994 117.783 14.4061 118.542 13.9669C119.3 13.52 120.163 13.3043 121.124 13.3043C122.084 13.3043 122.91 13.5123 123.638 13.9361C124.374 14.3445 124.952 14.9146 125.379 15.6466C125.8 16.3785 126.017 17.2184 126.025 18.1507H116.035Z" fill="#FCFAFF"/>
<path d="M69.3175 8.71233C67.2909 7.51037 64.8664 6.90939 62.0292 6.90168C59.1919 6.89398 56.76 7.50266 54.7184 8.69692C52.6918 9.88347 51.1305 11.5554 50.0272 13.7051C48.9388 15.847 48.3909 18.3357 48.3909 21.1865C48.3909 24.0373 48.9313 26.5183 50.0197 28.6679C51.1155 30.8099 52.6843 32.4819 54.7034 33.6838C56.7375 34.8781 59.1769 35.4713 62.0067 35.4713C64.8364 35.4713 67.2683 34.8781 69.2949 33.6915C71.3366 32.4896 72.8978 30.8176 73.9862 28.6834C75.0895 26.5337 75.6375 24.0373 75.645 21.2019C75.6525 18.3665 75.097 15.8624 74.0012 13.7205C72.9128 11.5708 71.3516 9.89888 69.3175 8.70462V8.71233ZM66.3226 25.1545C65.9473 26.3103 65.3994 27.2117 64.6863 27.8589C63.9732 28.5061 63.1025 28.8297 62.0667 28.8297C61.0309 28.8297 60.1002 28.5061 59.3646 27.8512C58.6365 27.204 58.0811 26.3025 57.6983 25.1468C57.323 23.9911 57.1353 22.6581 57.1353 21.1403C57.1353 19.6224 57.323 18.2587 57.6983 17.1029C58.0886 15.9472 58.644 15.0457 59.3721 14.3985C60.1077 13.7513 61.0084 13.4277 62.0742 13.4277C63.1401 13.4277 63.9732 13.7513 64.6938 14.4062C65.4069 15.0534 65.9548 15.9549 66.3226 17.1106C66.7054 18.2664 66.9005 19.6147 66.9005 21.148C66.9005 22.6813 66.7054 23.9988 66.3151 25.1468L66.3226 25.1545Z" fill="#FCFAFF"/>
</svg>
